# Blender v2.76 (sub 0) OBJ File: 'PineTree002.blend'
# www.blender.org
mtllib PineTree.mtl
o PineTree
v -0.000000 1.863583 -1.597697
v -1.382974 1.906708 -0.798849
v -1.382974 1.906708 0.798849
v 0.000000 1.863583 1.597697
v 1.382974 1.820458 0.798848
v 1.382974 1.820458 -0.798848
v 0.000000 3.021692 -1.129054
v -0.977789 3.021692 -0.564527
v -0.977789 3.021692 0.564527
v 0.000000 3.021692 1.129054
v 0.977789 3.021692 0.564527
v 0.977789 3.021692 -0.564527
v -0.159719 2.564896 -1.984618
v -1.796109 2.476892 -0.853789
v -1.636390 2.485481 1.130830
v 0.159719 2.582075 1.984618
v 1.796109 2.670080 0.853788
v 1.636391 2.661490 -1.130829
v -0.071676 4.219455 -0.889342
v -0.806030 4.219455 -0.382597
v -0.734354 4.219455 0.506744
v 0.071676 4.219455 0.889342
v 0.806031 4.219455 0.382597
v 0.734355 4.219455 -0.506744
v -0.236872 3.854773 -1.529595
v -1.439065 3.902515 -0.561380
v -1.202324 3.893113 0.964678
v 0.236611 3.835970 1.522521
v 1.438805 3.788228 0.554306
v 1.202064 3.797630 -0.971752
v -0.172029 5.651662 -0.485764
v -0.557793 5.651662 -0.175325
v -0.481827 5.651662 0.313976
v -0.020096 5.651662 0.492838
v 0.365668 5.651662 0.182399
v 0.289701 5.651662 -0.306902
v -0.353336 5.160363 -1.063874
v -1.148853 5.178898 -0.307303
v -0.891580 5.172904 0.760108
v 0.161210 5.148374 1.070947
v 0.956728 5.129839 0.314377
v 0.699455 5.135833 -0.753033
v 0.119184 8.145556 0.003537
v 0.207062 6.883765 -0.284669
v 0.305093 6.883765 0.121948
v 0.001969 6.883765 0.410154
v -0.399187 6.883765 0.291743
v -0.497219 6.883765 -0.114874
v -0.194094 6.883765 -0.403080
v -1.999308 1.438027 -1.154862
v -0.000000 1.375683 -2.309724
v -1.999307 1.438027 1.154862
v 0.000000 1.375683 2.309724
v 1.999308 1.313339 1.154862
v 1.999308 1.313339 -1.154862
v 0.206211 0.000000 -0.206211
v 0.206211 0.000000 0.206211
v -0.206211 0.000000 0.206211
v -0.206211 0.000000 -0.206211
v 0.055150 7.000000 -0.055150
v 0.055150 7.000000 0.055150
v -0.055150 7.000000 0.055150
v -0.055150 7.000000 -0.055150
v 0.166585 1.750000 -0.166585
v 0.249016 3.500000 -0.146410
v 0.022992 5.250000 -0.112772
v 0.166585 1.750000 0.166585
v 0.249016 3.500000 0.146410
v 0.022992 5.250000 0.112772
v -0.166585 1.750000 0.166585
v -0.043804 3.500000 0.146410
v -0.202552 5.250000 0.112772
v -0.166585 1.750000 -0.166585
v -0.043804 3.500000 -0.146410
v -0.202552 5.250000 -0.112772
vn 0.000000 -1.000000 0.000000
vn 0.000000 1.000000 0.000000
vn 0.999800 -0.018400 0.000000
vn -0.000000 0.032900 0.999500
vn -0.996500 0.083900 -0.000000
vn 0.000000 0.022600 -0.999700
vn 0.000000 0.032900 -0.999500
vn 0.000000 0.019200 -0.999800
vn 0.000000 0.011500 -0.999900
vn -0.999700 0.022600 -0.000000
vn -0.997500 0.070000 -0.000000
vn -0.995900 -0.090300 0.000000
vn -0.000000 0.022600 0.999700
vn -0.000000 0.011500 0.999900
vn -0.000000 0.019200 0.999800
vn 0.999700 0.022600 0.000000
vn 0.998900 -0.047100 0.000000
vn 0.991800 0.128100 0.000000
vn 0.858300 0.513200 0.000000
vn -0.420100 0.542200 0.727700
vn -0.424700 0.527700 -0.735600
vn 0.429100 0.513400 -0.743200
vn 0.438200 0.523900 0.730400
vn -0.840300 0.542100 -0.000000
vn -0.411300 0.531300 0.740700
vn -0.408800 0.538400 -0.736900
vn 0.438200 0.523900 -0.730400
vn 0.429100 0.513400 0.743200
vn -0.394800 -0.918800 0.000000
vn 0.273700 -0.836900 -0.474100
vn 0.243100 -0.873800 0.421100
vn -0.201100 -0.915500 0.348400
vn -0.236100 -0.881500 -0.408900
vn 0.554200 -0.832400 0.000000
vn 0.850000 0.522300 -0.068500
vn -0.396300 0.486400 0.778700
vn -0.492300 0.498500 -0.713500
vn 0.366100 0.520900 -0.771200
vn 0.471100 0.507800 0.721300
vn -0.875300 0.478800 0.068400
vn -0.241000 -0.827100 0.507800
vn -0.300600 -0.848500 -0.435600
vn 0.455700 -0.889400 -0.036700
vn -0.571100 -0.819600 0.046000
vn 0.201200 -0.883100 -0.423800
vn 0.287700 -0.862200 0.416900
vn 0.870200 0.474800 -0.132100
vn -0.324000 0.442200 0.836400
vn -0.555000 0.432700 -0.710400
vn 0.336700 0.460300 -0.821400
vn 0.553800 0.468600 0.688200
vn -0.896400 0.420900 0.139200
vn -0.452600 -0.890800 0.040300
vn 0.272800 -0.834100 -0.479500
vn 0.368000 -0.802300 0.470000
vn -0.186900 -0.851700 0.489600
vn -0.234700 -0.882200 -0.408300
vn 0.606900 -0.793400 -0.045400
vn 0.850700 0.520900 -0.070700
vn -0.370700 0.502500 0.781000
vn -0.515000 0.483900 -0.707500
vn 0.348400 0.504400 -0.790000
vn 0.484200 0.522800 0.701600
vn -0.874300 0.480200 0.070500
vn -0.236500 -0.816800 0.526200
vn -0.407700 -0.784400 -0.467500
vn 0.512800 -0.854300 -0.084800
vn -0.615700 -0.782700 0.090700
vn 0.178000 -0.820500 -0.543300
vn 0.307100 -0.852300 0.423400
vn 0.869000 0.476000 -0.134900
vn -0.310300 0.435400 0.845100
vn -0.563500 0.438400 -0.700200
vn 0.319300 0.467400 -0.824400
vn 0.567200 0.462600 0.681400
vn -0.896500 0.419700 0.141700
vn 0.183500 -0.712200 -0.677600
vn 0.466100 -0.724500 0.507800
vn -0.214600 -0.710000 0.670700
vn -0.502100 -0.697900 -0.510800
vn 0.668000 -0.725600 -0.165100
vn -0.698200 -0.696800 0.164400
vn -0.918800 0.325600 0.223300
vn 0.657000 0.319000 0.683000
vn 0.267900 0.323200 -0.907600
vn -0.651300 0.326300 -0.685100
vn -0.261100 0.322500 0.909800
vn 0.921300 0.319100 -0.222100
vn 0.965100 0.120400 -0.232700
vn -0.268400 0.318000 0.909300
vn -0.638700 0.375100 -0.671800
vn 0.275400 0.232300 -0.932900
vn 0.679400 0.167100 0.714500
vn -0.885600 0.412600 0.213500
vn -0.031200 -0.999500 0.000000
vn 0.288000 -0.790000 0.541300
vn 0.605300 -0.796000 -0.000000
vn 0.288000 -0.790000 -0.541300
vn -0.332200 -0.778100 -0.533100
vn -0.635400 -0.772200 0.000000
vn -0.332200 -0.778100 0.533100
vn 0.233800 -0.762400 -0.603400
vn 0.411800 -0.754100 0.511700
vn -0.243800 -0.737900 0.629300
vn -0.417400 -0.746200 -0.518700
vn 0.634900 -0.766300 -0.098600
vn -0.671200 -0.733900 0.104200
vn -0.919000 0.326200 0.221600
vn 0.652500 0.321200 0.686300
vn 0.275100 0.320400 -0.906500
vn -0.648000 0.324100 -0.689300
vn -0.267700 0.325300 0.906900
vn 0.922000 0.318400 -0.220400
usemtl PineTreeBase
s off
f 57//1 58//1 59//1
f 63//2 62//2 61//2
f 60//3 61//3 69//3
f 69//4 61//4 62//4
f 62//5 63//5 75//5
f 56//6 59//6 73//6
f 66//7 75//7 63//7
f 66//8 65//8 74//8
f 64//9 73//9 74//9
f 70//10 73//10 59//10
f 71//11 74//11 73//11
f 72//12 75//12 74//12
f 67//13 70//13 58//13
f 67//14 68//14 71//14
f 69//15 72//15 71//15
f 64//16 67//16 57//16
f 65//17 68//17 67//17
f 66//18 69//18 68//18
f 56//1 57//1 59//1
f 60//2 63//2 61//2
f 66//3 60//3 69//3
f 72//4 69//4 62//4
f 72//5 62//5 75//5
f 64//6 56//6 73//6
f 60//7 66//7 63//7
f 75//8 66//8 74//8
f 65//9 64//9 74//9
f 58//10 70//10 59//10
f 70//11 71//11 73//11
f 71//12 72//12 74//12
f 57//13 67//13 58//13
f 70//14 67//14 71//14
f 68//15 69//15 71//15
f 56//16 64//16 57//16
f 64//17 65//17 67//17
f 65//18 66//18 68//18
usemtl PineTreeLeaves
f 54//19 12//19 11//19
f 52//20 10//20 9//20
f 51//21 8//21 7//21
f 55//22 7//22 12//22
f 54//23 10//23 53//23
f 50//24 9//24 8//24
f 55//19 12//19 54//19
f 53//25 10//25 52//25
f 50//26 8//26 51//26
f 51//27 7//27 55//27
f 11//28 10//28 54//28
f 52//24 9//24 50//24
f 12//29 17//29 11//29
f 10//30 15//30 9//30
f 8//31 13//31 7//31
f 7//32 18//32 12//32
f 11//33 16//33 10//33
f 9//34 14//34 8//34
f 17//35 24//35 23//35
f 16//36 21//36 15//36
f 13//37 20//37 19//37
f 18//38 19//38 24//38
f 17//39 22//39 16//39
f 15//40 20//40 14//40
f 19//41 30//41 24//41
f 23//42 28//42 22//42
f 21//43 26//43 20//43
f 24//44 29//44 23//44
f 22//45 27//45 21//45
f 20//46 25//46 19//46
f 30//47 35//47 29//47
f 27//48 34//48 33//48
f 26//49 31//49 25//49
f 25//50 36//50 30//50
f 28//51 35//51 34//51
f 26//52 33//52 32//52
f 18//53 17//53 12//53
f 16//54 15//54 10//54
f 14//55 13//55 8//55
f 13//56 18//56 7//56
f 17//57 16//57 11//57
f 15//58 14//58 9//58
f 18//59 24//59 17//59
f 22//60 21//60 16//60
f 14//61 20//61 13//61
f 13//62 19//62 18//62
f 23//63 22//63 17//63
f 21//64 20//64 15//64
f 25//65 30//65 19//65
f 29//66 28//66 23//66
f 27//67 26//67 21//67
f 30//68 29//68 24//68
f 28//69 27//69 22//69
f 26//70 25//70 20//70
f 36//71 35//71 30//71
f 28//72 34//72 27//72
f 32//73 31//73 26//73
f 31//74 36//74 25//74
f 29//75 35//75 28//75
f 27//76 33//76 26//76
f 34//77 40//77 39//77
f 32//78 38//78 37//78
f 31//79 37//79 42//79
f 35//80 41//80 40//80
f 33//81 39//81 38//81
f 36//82 42//82 41//82
f 38//83 39//83 47//83
f 40//84 41//84 45//84
f 37//85 49//85 44//85
f 38//86 48//86 49//86
f 39//87 40//87 46//87
f 42//88 44//88 45//88
f 45//89 44//89 43//89
f 47//90 46//90 43//90
f 49//91 48//91 43//91
f 44//92 49//92 43//92
f 46//93 45//93 43//93
f 48//94 47//94 43//94
f 6//95 5//95 3//95
f 1//96 2//96 50//96
f 3//97 52//97 50//97
f 4//98 53//98 52//98
f 5//99 54//99 53//99
f 6//100 55//100 54//100
f 6//101 1//101 51//101
f 33//102 34//102 39//102
f 31//103 32//103 37//103
f 36//104 31//104 42//104
f 34//105 35//105 40//105
f 32//106 33//106 38//106
f 35//107 36//107 41//107
f 48//108 38//108 47//108
f 46//109 40//109 45//109
f 42//110 37//110 44//110
f 37//111 38//111 49//111
f 47//112 39//112 46//112
f 41//113 42//113 45//113
f 3//95 2//95 1//95
f 1//95 6//95 3//95
f 5//95 4//95 3//95
f 51//96 1//96 50//96
f 2//97 3//97 50//97
f 3//98 4//98 52//98
f 4//99 5//99 53//99
f 5//100 6//100 54//100
f 55//101 6//101 51//101
