# Blender v2.76 (sub 0) OBJ File: ''
# www.blender.org
mtllib data/Cube.mtl
o Cube
v 0.500000 -0.500000 -0.500000
v 0.500000 -0.500000 0.500000
v -0.500000 -0.500000 0.500000
v -0.500000 -0.500000 -0.500000
v 0.500000 0.500000 -0.500000
v 0.500000 0.500000 0.500000
v -0.500000 0.500000 0.500000
v -0.500000 0.500000 -0.500000
vt 0.502334 0.999000
vt 0.502334 0.000100
vt 1.002264 0.000100
vt 0.000100 0.999000
vt 0.000100 0.000100
vt 0.499000 0.000100
vt 0.998349 0.999900
vt 0.502364 0.999000
vt 0.502364 0.000100
vt 0.999900 0.999900
vt 0.503914 0.999900
vt 0.503914 0.000100
vt 0.999900 0.000100
vt 1.002264 0.999000
vt 0.499000 0.999000
vt 0.998350 0.000100
vn 0.000000 -1.000000 0.000000
vn 0.000000 1.000000 0.000000
vn 1.000000 0.000000 0.000000
vn -0.000000 0.000000 1.000000
vn -1.000000 -0.000000 -0.000000
vn 0.000000 0.000000 -1.000000
usemtl Mat
s off
f 2/1/1 3/2/1 4/3/1
f 8/4/2 7/5/2 6/6/2
f 5/7/3 6/8/3 2/9/3
f 6/10/4 7/11/4 3/12/4
f 3/11/5 7/12/5 8/13/5
f 1/10/6 4/8/6 8/9/6
f 1/14/1 2/1/1 4/3/1
f 5/15/2 8/4/2 6/6/2
f 1/16/3 5/7/3 2/9/3
f 2/13/4 6/10/4 3/12/4
f 4/10/5 3/11/5 8/13/5
f 5/13/6 1/10/6 8/9/6
